<svg width="3116" height="482" viewBox="0 0 3116 482" fill="none" xmlns="http://www.w3.org/2000/svg">
<path d="M120.25 339.3C120.25 369.2 141.7 384.15 184.6 384.15C227.933 384.15 249.6 370.717 249.6 343.85C249.6 329.55 242.233 317.85 227.5 308.75C212.767 299.65 194.783 292.067 173.55 286C152.75 279.933 131.733 273 110.5 265.2C89.7 256.967 71.9333 244.4 57.2 227.5C42.4667 210.167 35.1 188.717 35.1 163.15C35.1 54.3834 105.083 1.13249e-05 245.05 1.13249e-05C296.183 1.13249e-05 334.75 9.75001 360.75 29.25C387.183 48.3167 400.4 74.9667 400.4 109.2C400.4 121.767 398.667 133.9 395.2 145.6C392.167 156.867 388.917 164.883 385.45 169.65L380.25 177.45H265.2C274.733 167.483 279.5 154.917 279.5 139.75C279.5 111.583 261.083 97.5 224.25 97.5C177.883 97.5 154.7 112.233 154.7 141.7C154.7 156.433 162.067 168.133 176.8 176.8C191.533 185.467 209.3 192.4 230.1 197.6C251.333 202.367 272.567 208.433 293.8 215.8C315.033 223.167 333.017 235.517 347.75 252.85C362.483 269.75 369.85 291.85 369.85 319.15C369.85 374.183 353.383 415.133 320.45 442C287.517 468.433 236.817 481.65 168.35 481.65C99.8833 481.65 53.0833 469.517 27.95 445.25C9.31667 427.05 2.42144e-07 401.917 2.42144e-07 369.85C2.42144e-07 357.717 1.3 344.5 3.9 330.2L5.85 319.8H122.85L121.55 327.6C120.683 331.933 120.25 335.833 120.25 339.3ZM881.034 105.95H721.134L656.784 472.55H539.134L603.484 105.95H442.934L461.134 4.55003H899.234L881.034 105.95ZM1123.02 1.13249e-05C1227.46 1.13249e-05 1279.67 42.6834 1279.67 128.05C1279.67 142.35 1278.16 157.733 1275.12 174.2L1252.37 304.2C1241.97 364.433 1219.44 409.067 1184.77 438.1C1150.11 467.133 1101.36 481.65 1038.52 481.65C975.689 481.65 931.922 467.133 907.222 438.1C890.322 418.167 881.872 390.65 881.872 355.55C881.872 339.95 883.606 322.833 887.072 304.2L909.822 174.2C930.189 58.0667 1001.26 1.13249e-05 1123.02 1.13249e-05ZM1056.07 380.9C1077.74 380.9 1095.07 375.267 1108.07 364C1121.07 352.733 1130.17 331.933 1135.37 301.6L1157.47 176.8C1158.77 168.133 1159.42 160.333 1159.42 153.4C1159.42 118.3 1141.66 100.75 1106.12 100.75C1061.49 101.617 1034.84 126.967 1026.17 176.8L1004.07 301.6C1002.34 312.433 1001.47 323.7 1001.47 335.4C1001.47 365.733 1019.67 380.9 1056.07 380.9ZM1466.26 481.65C1404.3 481.65 1361.4 468.217 1337.56 441.35C1321.1 422.283 1312.86 395.633 1312.86 361.4C1312.86 346.667 1314.38 330.85 1317.41 313.95L1344.06 164.45C1363.56 54.8167 1433.98 1.13249e-05 1555.31 1.13249e-05C1605.58 1.13249e-05 1643.71 10.8333 1669.71 32.5C1695.71 53.7334 1708.71 82.9834 1708.71 120.25C1708.71 137.583 1706.11 154.917 1700.91 172.25C1696.15 189.15 1691.38 201.717 1686.61 209.95L1679.46 222.95H1564.41C1578.71 206.483 1585.86 183.083 1585.86 152.75C1585.86 136.717 1581.75 124.15 1573.51 115.05C1565.28 105.517 1553.15 100.75 1537.11 100.75C1493.35 100.75 1467.35 125.017 1459.11 173.55L1436.36 304.85C1434.2 316.117 1433.11 327.167 1433.11 338C1433.11 366.6 1450.23 380.9 1484.46 380.9C1525.63 380.9 1550.33 357.717 1558.56 311.35H1675.56L1672.31 330.2C1654.98 431.167 1586.3 481.65 1466.26 481.65ZM2176.36 4.55003L2027.51 240.5L2093.81 472.55H1970.31L1921.56 300.95H1870.21L1839.66 472.55H1722.66L1805.21 4.55003H1922.21L1887.76 199.55H1929.36L2052.86 4.55003H2176.36ZM2216.18 432.25L2231.13 348.4H2149.23L2162.88 271.7H2244.78L2259.08 191.1H2335.78L2321.48 271.7H2404.03L2390.38 348.4H2307.83L2292.88 432.25H2216.18ZM2572.56 481.65C2482.43 481.65 2437.36 450.45 2437.36 388.05C2437.36 379.383 2438.23 370.067 2439.96 360.1L2453.61 279.5C2460.98 237.9 2480.05 206.05 2510.81 183.95C2542.01 161.417 2583.18 150.15 2634.31 150.15C2721.41 150.15 2764.96 183.083 2764.96 248.95C2764.96 258.483 2764.1 268.883 2762.36 280.15L2754.56 326.3H2556.31L2553.71 341.25C2552.85 346.45 2552.41 351.217 2552.41 355.55C2552.41 379.383 2566.5 391.3 2594.66 391.3C2605.06 391.3 2613.95 388.05 2621.31 381.55C2628.68 375.05 2633.01 367.467 2634.31 358.8L2742.21 360.1C2727.91 441.133 2671.36 481.65 2572.56 481.65ZM2650.56 286.65C2652.3 279.283 2653.16 272.567 2653.16 266.5C2653.16 260 2650.35 253.5 2644.71 247C2639.08 240.5 2629.98 237.25 2617.41 237.25C2605.28 237.25 2594.01 241.367 2583.61 249.6C2573.65 257.833 2566.71 270.183 2562.81 286.65H2650.56ZM3115.16 226.2C3115.16 240.933 3112.56 255.233 3107.36 269.1C3102.59 282.967 3097.82 293.15 3093.06 299.65L3085.91 308.75H2987.76C2998.59 298.783 3004.01 286.433 3004.01 271.7C3004.01 263.9 3001.41 257.617 2996.21 252.85C2991.44 247.65 2984.72 245.05 2976.06 245.05C2961.32 245.05 2948.54 252.417 2937.71 267.15L2901.31 472.55H2790.81L2846.06 159.9H2948.76L2940.96 203.45C2965.66 168.35 2995.56 150.8 3030.66 150.8C3058.82 150.8 3079.84 157.517 3093.71 170.95C3108.01 184.383 3115.16 202.8 3115.16 226.2Z" fill="black"/>
</svg>
