<svg width="3624" height="781" viewBox="0 0 3624 781" fill="none" xmlns="http://www.w3.org/2000/svg">
<g clip-path="url(#clip0_53_25)">
<rect width="3624" height="781" fill="white"/>
<path d="M344.5 547.75C344.5 577.65 365.95 592.6 408.85 592.6C452.183 592.6 473.85 579.167 473.85 552.3C473.85 538 466.483 526.3 451.75 517.2C437.017 508.1 419.033 500.517 397.8 494.45C377 488.383 355.983 481.45 334.75 473.65C313.95 465.417 296.183 452.85 281.45 435.95C266.717 418.617 259.35 397.167 259.35 371.6C259.35 262.833 329.333 208.45 469.3 208.45C520.433 208.45 559 218.2 585 237.7C611.433 256.767 624.65 283.417 624.65 317.65C624.65 330.217 622.917 342.35 619.45 354.05C616.417 365.317 613.167 373.333 609.7 378.1L604.5 385.9H489.45C498.983 375.933 503.75 363.367 503.75 348.2C503.75 320.033 485.333 305.95 448.5 305.95C402.133 305.95 378.95 320.683 378.95 350.15C378.95 364.883 386.317 376.583 401.05 385.25C415.783 393.917 433.55 400.85 454.35 406.05C475.583 410.817 496.817 416.883 518.05 424.25C539.283 431.617 557.267 443.967 572 461.3C586.733 478.2 594.1 500.3 594.1 527.6C594.1 582.633 577.633 623.583 544.7 650.45C511.767 676.883 461.067 690.1 392.6 690.1C324.133 690.1 277.333 677.967 252.2 653.7C233.567 635.5 224.25 610.367 224.25 578.3C224.25 566.167 225.55 552.95 228.15 538.65L230.1 528.25H347.1L345.8 536.05C344.933 540.383 344.5 544.283 344.5 547.75ZM1105.28 314.4H945.384L881.034 681H763.384L827.734 314.4H667.184L685.384 213H1123.48L1105.28 314.4ZM1347.27 208.45C1451.71 208.45 1503.92 251.133 1503.92 336.5C1503.92 350.8 1502.41 366.183 1499.37 382.65L1476.62 512.65C1466.22 572.883 1443.69 617.517 1409.02 646.55C1374.36 675.583 1325.61 690.1 1262.77 690.1C1199.94 690.1 1156.17 675.583 1131.47 646.55C1114.57 626.617 1106.12 599.1 1106.12 564C1106.12 548.4 1107.86 531.283 1111.32 512.65L1134.07 382.65C1154.44 266.517 1225.51 208.45 1347.27 208.45ZM1280.32 589.35C1301.99 589.35 1319.32 583.717 1332.32 572.45C1345.32 561.183 1354.42 540.383 1359.62 510.05L1381.72 385.25C1383.02 376.583 1383.67 368.783 1383.67 361.85C1383.67 326.75 1365.91 309.2 1330.37 309.2C1285.74 310.067 1259.09 335.417 1250.42 385.25L1228.32 510.05C1226.59 520.883 1225.72 532.15 1225.72 543.85C1225.72 574.183 1243.92 589.35 1280.32 589.35ZM1690.51 690.1C1628.55 690.1 1585.65 676.667 1561.81 649.8C1545.35 630.733 1537.11 604.083 1537.11 569.85C1537.11 555.117 1538.63 539.3 1541.66 522.4L1568.31 372.9C1587.81 263.267 1658.23 208.45 1779.56 208.45C1829.83 208.45 1867.96 219.283 1893.96 240.95C1919.96 262.183 1932.96 291.433 1932.96 328.7C1932.96 346.033 1930.36 363.367 1925.16 380.7C1920.4 397.6 1915.63 410.167 1910.86 418.4L1903.71 431.4H1788.66C1802.96 414.933 1810.11 391.533 1810.11 361.2C1810.11 345.167 1806 332.6 1797.76 323.5C1789.53 313.967 1777.4 309.2 1761.36 309.2C1717.6 309.2 1691.6 333.467 1683.36 382L1660.61 513.3C1658.45 524.567 1657.36 535.617 1657.36 546.45C1657.36 575.05 1674.48 589.35 1708.71 589.35C1749.88 589.35 1774.58 566.167 1782.81 519.8H1899.81L1896.56 538.65C1879.23 639.617 1810.55 690.1 1690.51 690.1ZM2400.61 213L2251.76 448.95L2318.06 681H2194.56L2145.81 509.4H2094.46L2063.91 681H1946.91L2029.46 213H2146.46L2112.01 408H2153.61L2277.11 213H2400.61ZM2440.43 640.7L2455.38 556.85H2373.48L2387.13 480.15H2469.03L2483.33 399.55H2560.03L2545.73 480.15H2628.28L2614.63 556.85H2532.08L2517.13 640.7H2440.43ZM2796.81 690.1C2706.68 690.1 2661.61 658.9 2661.61 596.5C2661.61 587.833 2662.48 578.517 2664.21 568.55L2677.86 487.95C2685.23 446.35 2704.3 414.5 2735.06 392.4C2766.26 369.867 2807.43 358.6 2858.56 358.6C2945.66 358.6 2989.21 391.533 2989.21 457.4C2989.21 466.933 2988.35 477.333 2986.61 488.6L2978.81 534.75H2780.56L2777.96 549.7C2777.1 554.9 2776.66 559.667 2776.66 564C2776.66 587.833 2790.75 599.75 2818.91 599.75C2829.31 599.75 2838.2 596.5 2845.56 590C2852.93 583.5 2857.26 575.917 2858.56 567.25L2966.46 568.55C2952.16 649.583 2895.61 690.1 2796.81 690.1ZM2874.81 495.1C2876.55 487.733 2877.41 481.017 2877.41 474.95C2877.41 468.45 2874.6 461.95 2868.96 455.45C2863.33 448.95 2854.23 445.7 2841.66 445.7C2829.53 445.7 2818.26 449.817 2807.86 458.05C2797.9 466.283 2790.96 478.633 2787.06 495.1H2874.81ZM3339.41 434.65C3339.41 449.383 3336.81 463.683 3331.61 477.55C3326.84 491.417 3322.07 501.6 3317.31 508.1L3310.16 517.2H3212.01C3222.84 507.233 3228.26 494.883 3228.26 480.15C3228.26 472.35 3225.66 466.067 3220.46 461.3C3215.69 456.1 3208.97 453.5 3200.31 453.5C3185.57 453.5 3172.79 460.867 3161.96 475.6L3125.56 681H3015.06L3070.31 368.35H3173.01L3165.21 411.9C3189.91 376.8 3219.81 359.25 3254.91 359.25C3283.07 359.25 3304.09 365.967 3317.96 379.4C3332.26 392.833 3339.41 411.25 3339.41 434.65Z" fill="black"/>
</g>
<defs>
<clipPath id="clip0_53_25">
<rect width="3624" height="781" fill="white"/>
</clipPath>
</defs>
</svg>
